<?xml version="1.0" encoding="UTF-8"?>
<svg width="72px" height="68px" viewBox="0 0 72 68" version="1.1" xmlns="http://www.w3.org/2000/svg" xmlns:xlink="http://www.w3.org/1999/xlink">
    <!-- Generator: Sketch 50.2 (55047) - http://www.bohemiancoding.com/sketch -->
    <title>uwmemc-icon-wordpress-menu</title>
    <desc>Created with Sketch.</desc>
    <defs></defs>
    <g id="uwmemc-icon-wordpress-menu" stroke="none" stroke-width="1" fill="none" fill-rule="evenodd">
        <g id="Icon---Small" transform="translate(13.000000, 4.000000)" fill="#A6AAAE">
            <g id="Structure" fill-rule="nonzero">
                <path d="M28.6949621,59.1148162 C28.6519744,59.6696879 28.1673136,60.0846518 27.6124419,60.0416641 C27.0575702,59.9986763 26.6426063,59.5140155 26.6855941,58.9591438 C26.692904,58.86479 26.7060719,58.6739567 26.7231624,58.390168 C26.7518597,57.9136496 26.7806099,57.3512121 26.8074782,56.7063798 C27.4602886,41.039108 26.0420399,21.2042971 20.8390533,0.339536024 C20.7043955,-0.200461934 21.0329887,-0.747378461 21.5729866,-0.882036229 C22.1129846,-1.016694 22.6599011,-0.688100851 22.7945589,-0.148102893 C28.0498924,20.926577 29.4813191,40.9456887 28.8211202,56.7902825 C28.7937293,57.4476575 28.7643446,58.0225076 28.7349069,58.5113208 C28.7171165,58.806731 28.7031548,59.0090671 28.6949621,59.1148162 Z" id="Stroke-1" transform="translate(24.890032, 29.566254) scale(-1, 1) rotate(10.000000) translate(-24.890032, -29.566254) "></path>
                <path d="M6.26207793,22.6225172 C5.71778432,22.738599 5.18244429,22.3914647 5.06636249,21.8471711 C4.9502807,21.3028775 5.29741496,20.7675375 5.84170856,20.6514557 C11.8205946,19.3763354 13.9087356,20.4211273 15.5495373,24.0588367 C15.6240922,24.2244739 15.6240922,24.2244739 15.6976476,24.3875528 C15.7533664,24.5107012 15.7996662,24.6116998 15.8446045,24.7077431 C17.0665997,27.3194272 18.6911742,28.2924325 23.5445824,28.0647614 C26.5046395,27.9259916 27.3658116,27.0183461 28.5649208,23.8587429 C28.5821284,23.8133995 28.5821284,23.8133995 28.5994026,23.7678941 C30.2247959,19.4870114 32.0829397,17.8869762 37.3281537,18.1882283 C37.8837724,18.2201395 38.3083212,18.6964267 38.27641,19.2520454 C38.2444987,19.8076642 37.7682116,20.232213 37.2125928,20.2003017 C32.9746318,19.9568999 31.8269164,20.9451899 30.4835515,24.4832799 C30.4663913,24.5284847 30.4663913,24.5284847 30.4491784,24.5738424 C28.9965459,28.4014688 27.5812695,29.8931211 23.6389907,30.0779383 C17.972713,30.3437407 15.5884012,28.9157064 14.0191532,25.5618635 C13.9701051,25.4570364 13.9204263,25.348667 13.8614596,25.2183399 C13.7858007,25.0505989 13.7858007,25.0505989 13.7123855,24.8874905 C12.4631229,22.1178357 11.3171021,21.5444294 6.26207793,22.6225172 Z" id="Stroke-3" transform="translate(21.661044, 24.130959) rotate(5.000000) translate(-21.661044, -24.130959) "></path>
                <path d="M29.9809895,13.6549662 C29.8260312,13.6114438 29.8260312,13.6114438 29.6710498,13.5679261 C30.3534626,13.7595312 22.7250891,11.6210667 20.9916642,11.1314805 C18.1373195,10.3253032 16.3997402,9.82182664 15.5808153,9.55869248 C13.9340459,9.02942062 13.316301,7.91680891 14.5500143,6.99194945 C15.1866597,6.51468494 16.4209402,6.09788815 18.0631541,5.74842053 C21.3232233,5.05466885 25.0955508,4.83005727 26.4027797,5.38805674 C26.7866694,5.55192269 26.965034,5.99596645 26.8011681,6.37985623 C26.6373021,6.763746 26.1932584,6.94211056 25.8093686,6.77824461 C24.890229,6.38590365 21.3347524,6.59760351 18.3777696,7.22685759 C17.2172657,7.47381601 16.2896499,7.75928804 15.7621243,8.0205351 C15.8424965,8.05161064 15.9362132,8.08522406 16.0432694,8.11963194 C16.8377185,8.37490162 18.5688319,8.87650466 21.4025096,9.67684481 C23.1342661,10.1659598 30.7605956,12.3038513 30.0796538,12.1126592 C30.2347059,12.1561968 30.2347059,12.1561968 30.3897394,12.1997403 C35.3970544,13.6062157 38.7128382,14.5523296 41.1066808,15.2666295 C42.5521961,15.6979575 43.5732545,16.0195043 44.1584304,16.2304778 C44.5977748,16.3888747 44.7863957,16.4708962 44.9449455,16.6210792 C45.2088651,16.8710715 45.3510126,17.2766143 45.0151324,17.6798854 C44.8392472,17.8910602 44.6747736,17.941988 44.4619861,17.9619417 C44.3467386,17.9727488 44.2224292,17.9654451 44.0523292,17.9451436 C43.2901105,17.8542423 42.4822999,17.7164148 41.4167107,17.5040828 C40.9797598,17.4170148 39.0356475,17.012971 38.4931975,16.9046536 C28.1844827,14.8461891 18.5657359,15.2787602 2.53352369,20.3198894 C2.13534326,20.4450923 1.71105727,20.2238003 1.5858544,19.8256198 C1.46065153,19.4274394 1.68194356,19.0031534 2.08012399,18.8779506 C15.4501118,14.6739246 24.501209,13.6230477 33.1556978,14.5491515 C32.179755,14.2733357 31.1245594,13.9761769 29.9809895,13.6549662 Z M15.3991988,7.85644852 C15.3991988,7.85644852 15.4008101,7.85739062 15.4040286,7.85919507 C15.4005268,7.85885093 15.3998661,7.85765043 15.3991988,7.85644852 Z" id="Stroke-5" transform="translate(23.381316, 12.714288) rotate(5.000000) translate(-23.381316, -12.714288) "></path>
            </g>
            <g id="Left-Support" transform="translate(16.981714, 31.676943)">
                <ellipse id="Red-Dot" cx="1.23428571" cy="1.26202962" rx="1.23428571" ry="1.26202962"></ellipse>
                <ellipse id="Yellow-Dot" cx="2.53028571" cy="5.67913329" rx="1.54285714" ry="1.57753703"></ellipse>
                <ellipse id="Green-Dot" cx="3.70285714" cy="11.4213681" rx="1.85142857" ry="1.89304443"></ellipse>
                <ellipse id="Blue-Dot" cx="4.25828571" cy="17.7315162" rx="2.16" ry="2.20855184"></ellipse>
                <ellipse id="Violet-Dot" cx="4.38171429" cy="24.9881865" rx="2.46857143" ry="2.52405924"></ellipse>
            </g>
            <g id="Right-Support" transform="translate(25.683429, 31.045929)">
                <ellipse id="Red-Dot" cx="1.48114286" cy="1.26202962" rx="1.23428571" ry="1.26202962"></ellipse>
                <ellipse id="Yellow-Dot" cx="1.54285714" cy="5.30052441" rx="1.54285714" ry="1.57753703"></ellipse>
                <ellipse id="Green-Dot" cx="2.28342857" cy="10.6641503" rx="1.85142857" ry="1.89304443"></ellipse>
                <ellipse id="Blue-Dot" cx="3.456" cy="16.2170806" rx="2.16" ry="2.20855184"></ellipse>
                <ellipse id="Violet-Dot" cx="4.93714286" cy="22.3379243" rx="2.46857143" ry="2.52405924"></ellipse>
            </g>
        </g>
    </g>
</svg>